<?xml version="1.0" encoding="UTF-8"?>
<svg width="96px" height="90px" viewBox="0 0 96 90" version="1.1" xmlns="http://www.w3.org/2000/svg" xmlns:xlink="http://www.w3.org/1999/xlink">
    <!-- Generator: Sketch 61.2 (89653) - https://sketch.com -->
    <title>svg</title>
    <desc>Created with Sketch.</desc>
    <g id="Page-1" stroke="none" stroke-width="1" fill="none" fill-rule="evenodd">
        <g id="mc/renovation" transform="translate(-2.000000, -5.000000)">
            <g id="Group-6">
                <rect id="Rectangle-3-Copy-4" fill-rule="nonzero" x="0" y="0" width="100" height="100"></rect>
                <g id="Group-Copy" transform="translate(4.166667, 6.666667)">
                    <polygon id="Path-3" fill="#F7F7F5" fill-rule="nonzero" points="11.1370717 39.7849462 11.1370717 86.5702315 79.6728859 86.5702315 80.1324905 39.7849462 45.9142602 10.9906609"></polygon>
                    <polyline id="Path-3" stroke="#3C3B5C" stroke-width="2.75246051" fill-rule="nonzero" points="11.1370717 39.7849462 11.1370717 86.5702315 79.6728859 86.5702315 80.1324905 39.7849462"></polyline>
                    <path d="M68.9857475,19.038423 L46.4024988,-0.0109708023 C46.0590894,-0.300643027 45.5564328,-0.299032873 45.2148863,-0.00716653756 L0.143261907,38.5084948 C-0.241958383,38.8376822 -0.287381955,39.4168242 0.0418055201,39.8020444 C0.0631527658,39.8270253 0.0858266221,39.8508413 0.109729073,39.8733896 L4.67647175,44.1813952 C5.01709064,44.5027157 5.5450267,44.515972 5.90134262,44.2121512 L45.2117222,10.6932704 C45.5547332,10.4007944 46.0593991,10.4008212 46.4023791,10.6933336 L85.7045525,44.2124227 C86.0606682,44.5161381 86.5883119,44.5031114 86.9290064,44.1821928 L91.4895046,39.8864125 C91.8583506,39.5389765 91.8757068,38.9583153 91.5282708,38.5894694 C91.5017414,38.5613052 91.473457,38.5348474 91.443587,38.5102544 L79.4871151,28.6660764 L79.4871151,28.6660764" id="Path-2" stroke="#3C3B5C" stroke-width="2.75246051" stroke-linecap="round" fill-rule="nonzero"></path>
                    <line x1="74.1494808" y1="24.3870968" x2="73.9655763" y2="24.2341697" id="Shape" stroke="#3C3B5C" stroke-width="2.75246051" fill="#F7F7F5" fill-rule="nonzero" stroke-linecap="round"></line>
                    <g id="paint" transform="translate(19.047619, 38.095238)">
                        <path d="M36.1607143,37.5 L30.8035714,37.5 L30.8026429,26.7848571 L28.7946429,26.7857143 L28.7946429,18.2142857 L41.5176429,18.2138571 L41.5178571,2.14285714 L46.875,2.14285714 L46.8746429,18.2138571 L47.5446429,18.2142857 L47.5446429,26.7857143 L46.8746429,26.7848571 L46.875,40.9821429 L41.5178571,40.9821429 L41.5176429,26.7848571 L36.1606429,26.7848571 L36.1607143,37.5 Z" id="Combined-Shape" fill="#C71F66"></path>
                        <path d="M44.476,-9.52380952e-05 C43.4753333,-9.52380952e-05 25.5260952,-9.52380952e-05 24.476,-9.52380952e-05 C22.1128571,-9.52380952e-05 20.1902857,1.92247619 20.1902857,4.28561905 L20.1902857,5.71419048 L19.8328571,5.71419048 C16.1585714,5.71419048 12.5146667,4.45314286 9.75057143,3.35447619 C8.37295238,2.80685714 6.85819048,2.70980952 5.36990476,3.07361905 C2.39485714,3.80104762 -0.0462857143,6.60142857 0.000666666667,10.0951429 C0.0525714286,13.9575238 3.18780952,17.1427619 7.14266667,17.1427619 C8.24790476,17.1427619 9.3072381,16.8940952 10.2910476,16.4037143 C13.1110476,14.9981905 15.7362857,14.285619 18.0939048,14.285619 L20.1902857,14.285619 L20.1902857,15.7141905 C20.1902857,18.0773333 22.1128571,19.9999048 24.476,19.9999048 L27.3331429,19.9999048 C28.1208571,19.9999048 28.7617143,20.6407619 28.7617143,21.4284762 L28.7617143,35.7141905 C28.7617143,38.0773333 30.6842857,39.9999048 33.0474286,39.9999048 C35.4105714,39.9999048 37.3331429,38.0773333 37.3331429,35.7141905 L37.3331429,29.9999048 C37.3331429,29.2121905 37.974,28.5713333 38.7617143,28.5713333 C39.5494286,28.5713333 40.1902857,29.2121905 40.1902857,29.9999048 L40.1902857,38.5713333 C40.1902857,40.9344762 42.1128571,42.8570476 44.476,42.8570476 C46.8391429,42.8570476 48.7617143,40.9344762 48.7617143,38.5713333 L48.7617143,4.28561905 C48.7617143,1.92247619 46.8391429,-9.52380952e-05 44.476,-9.52380952e-05 Z M40.1902857,5.71419048 L33.0474286,5.71419048 C32.2584762,5.71419048 31.6188571,6.35380952 31.6188571,7.1427619 C31.6188571,7.93171429 32.2584762,8.57133333 33.0474286,8.57133333 L40.1902857,8.57133333 L40.1902857,11.4284762 L35.9045714,11.4284762 C35.115619,11.4284762 34.476,12.0680952 34.476,12.8570476 C34.476,13.646 35.115619,14.285619 35.9045714,14.285619 L40.1902857,14.285619 L40.1902857,17.1427619 L28.7617143,17.1427619 L28.7617143,2.85704762 L40.1902857,2.85704762 L40.1902857,5.71419048 Z M23.0474286,15.7141905 L23.0474286,12.8570476 C23.0474286,12.0680952 22.4078095,11.4284762 21.6188571,11.4284762 L18.0939048,11.4284762 C15.2900952,11.4284762 12.236,12.242 9.01657143,13.8465714 C8.43209524,14.1379048 7.80161905,14.285619 7.14266667,14.285619 C4.83057143,14.285619 2.95380952,12.4551429 2.85980952,10.190381 C2.76971429,8.01771429 4.242,6.29066667 6.04847619,5.84904762 C6.95685714,5.62685714 7.87209524,5.68238095 8.6952381,6.00961905 C11.696,7.20238095 15.6737143,8.57142857 19.8328571,8.57142857 L21.6188571,8.57142857 C22.4078095,8.57142857 23.0474286,7.93180952 23.0474286,7.14285714 L23.0474286,4.28571429 C23.0474286,3.498 23.6882857,2.85714286 24.476,2.85714286 L25.9045714,2.85714286 L25.9045714,17.1428571 L24.476,17.1428571 C23.6882857,17.1428571 23.0474286,16.5019048 23.0474286,15.7141905 L23.0474286,15.7141905 Z M45.9045714,38.5713333 C45.9045714,39.3590476 45.2637143,39.9999048 44.476,39.9999048 C43.6882857,39.9999048 43.0474286,39.3590476 43.0474286,38.5713333 L43.0474286,29.9999048 C43.0474286,27.6367619 41.1248571,25.7141905 38.7617143,25.7141905 C36.3985714,25.7141905 34.476,27.6367619 34.476,29.9999048 L34.476,35.7141905 C34.476,36.5019048 33.8351429,37.1427619 33.0474286,37.1427619 C32.2597143,37.1427619 31.6188571,36.5019048 31.6188571,35.7141905 L31.6188571,21.4284762 C31.6188571,20.9277143 31.5317143,20.4470476 31.3731429,19.9999048 L41.6188571,19.9999048 C42.4078095,19.9999048 43.0474286,19.3602857 43.0474286,18.5713333 L43.0474286,2.85704762 L44.476,2.85704762 C45.2637143,2.85704762 45.9045714,3.49790476 45.9045714,4.28561905 L45.9045714,38.5713333 Z" id="Shape" fill="#3C3B5C" fill-rule="nonzero"></path>
                    </g>
                </g>
            </g>
        </g>
    </g>
</svg>