<?xml version="1.0" encoding="UTF-8"?>
<svg width="85px" height="83px" viewBox="0 0 85 83" version="1.1" xmlns="http://www.w3.org/2000/svg" xmlns:xlink="http://www.w3.org/1999/xlink">
    <!-- Generator: Sketch 61.2 (89653) - https://sketch.com -->
    <title>svg</title>
    <desc>Created with Sketch.</desc>
    <g id="Page-1" stroke="none" stroke-width="1" fill="none" fill-rule="evenodd">
        <g id="mc/electric" transform="translate(-7.000000, -9.000000)">
            <g id="Group-5">
                <rect id="Rectangle-3-Copy-4" fill-rule="nonzero" x="0" y="0" width="100" height="100"></rect>
                <g id="e2e_electrical-copy" transform="translate(7.500000, 8.333333)">
                    <path d="M67.1248269,21.726718 L67.9048599,21.7257193 C70.2400312,21.7227293 72.1354855,23.6133358 72.1384754,25.9485071 C72.1384801,25.9521163 72.1384801,25.9557255 72.1384754,25.9593347 L72.0990151,56.7778294 C72.0960306,59.1087733 70.2071713,60.9976326 67.8762273,61.0006172 L67.0961942,61.001616 C64.7610229,61.0046059 62.8655687,59.1139994 62.8625787,56.7788281 C62.8625741,56.7752189 62.8625741,56.7716097 62.8625787,56.7680005 L62.902039,25.9495058 C62.9050236,23.6185619 64.7938829,21.7297026 67.1248269,21.726718 Z" id="Rectangle-path" fill="#F5F6F7" fill-rule="nonzero" transform="translate(67.500527, 41.363668) rotate(45.000000) translate(-67.500527, -41.363668) "></path>
                    <path d="M56.8700855,57.7753992 C55.3928477,57.7807464 53.9748892,57.1962254 52.9324786,56.1521739 L52.6782051,55.8985507 C50.5055138,53.728611 50.5055138,50.213418 52.6782051,48.0434783 L74.2042735,26.5724638 C76.3814288,24.4093136 79.9023319,24.4093136 82.0794872,26.5724638 L82.3337607,26.826087 C84.5024574,28.997674 84.5024574,32.5095723 82.3337607,34.6811594 L60.8076923,56.1521739 C59.7652817,57.1962254 58.3473232,57.7807464 56.8700855,57.7753992 L56.8700855,57.7753992 Z M78.1418803,27.1956077 C77.2619677,27.1910885 76.4168675,27.538181 75.7952991,28.1594203 L54.2692308,49.6376812 C52.9789192,50.9298579 52.9789192,53.0194174 54.2692308,54.3115942 L54.5235043,54.5652174 C55.8206317,55.8482689 57.9122743,55.8482689 59.2094017,54.5652174 L80.7354701,33.0942029 C82.0257817,31.8020261 82.0257817,29.7124666 80.7354701,28.4202899 L80.4811966,28.1666667 C79.8614026,27.5472165 79.0192779,27.200272 78.1418803,27.2028986 L78.1418803,27.1956077 Z" id="Shape" fill="#3C3B5C" fill-rule="nonzero"></path>
                    <path d="M42.9013315,-2.4377394 L43.6813646,-2.43873817 C46.0165359,-2.44172814 47.9119901,-0.551121631 47.9149801,1.78404967 C47.9149847,1.78765889 47.9149847,1.79126811 47.9149801,1.79487733 L47.8755198,32.613372 C47.8725352,34.9443159 45.9836759,36.8331752 43.6527319,36.8361598 L42.8726988,36.8371585 C40.5375275,36.8401485 38.6420733,34.949542 38.6390833,32.6143707 C38.6390787,32.6107615 38.6390787,32.6071523 38.6390833,32.6035431 L38.6785436,1.78504843 C38.6815282,-0.545895527 40.5703875,-2.43475484 42.9013315,-2.4377394 Z" id="Rectangle-path" fill="#F5F6F7" fill-rule="nonzero" transform="translate(43.277032, 17.199210) rotate(45.000000) translate(-43.277032, -17.199210) "></path>
                    <path d="M32.641453,33.6159533 C31.1646925,33.61891 29.7476289,33.0347579 28.7038462,31.9927536 L28.7038462,31.9927536 L28.4495726,31.7391304 C26.280876,29.5675434 26.280876,26.055645 28.4495726,23.884058 L49.975641,2.4057971 C52.1511447,0.238662565 55.675351,0.238662565 57.8508547,2.4057971 L58.1051282,2.65942029 C60.2778195,4.82936001 60.2778195,8.34455304 58.1051282,10.5144928 L36.5790598,31.9927536 C35.5352771,33.0347579 34.1182135,33.61891 32.641453,33.6159533 Z M30.2948718,30.4347826 C31.5903619,31.7217942 33.6852792,31.7217942 34.9807692,30.4347826 L56.5141026,8.92753623 C57.8044142,7.63535944 57.8044142,5.54579998 56.5141026,4.25362319 L56.2598291,4 C54.964339,2.71298843 52.8694217,2.71298843 51.5739316,4 L30.0405983,25.4710145 C28.7542569,26.7648244 28.7542569,28.8511176 30.0405983,30.1449275 L30.2948718,30.4347826 Z" id="Shape" fill="#3C3B5C" fill-rule="nonzero"></path>
                    <path d="M49.6487179,72.6594203 L43.5897436,78.5 C43.0787323,78.852577 42.4746704,79.0466934 41.8534188,79.057971 L32.0311966,79.7101449 L37.3491453,72.9347826 L49.6487179,72.6594203 Z" id="Shape" fill="#F5F6F7" fill-rule="nonzero"></path>
                    <path d="M2.72766606,70.5492785 L15.5964083,70.5328012 C16.2022689,70.5320255 16.6940449,71.0225436 16.6948206,71.6284042 C16.6948218,71.6293406 16.6948218,71.6302771 16.6948206,71.6312135 L16.687615,77.2588 C16.6868406,77.8635639 16.1967758,78.3536287 15.592012,78.3544031 L2.72326968,78.3708803 C2.11740909,78.3716561 1.62563316,77.8811379 1.62485742,77.2752773 C1.62485622,77.2743409 1.62485622,77.2734045 1.62485742,77.2724681 L1.63206303,71.6448815 C1.63283738,71.0401177 2.12290225,70.5500528 2.72766606,70.5492785 Z" id="Rectangle-path" fill="#C71F66" transform="translate(9.159839, 74.451841) rotate(45.000000) translate(-9.159839, -74.451841) "></path>
                    <path d="M11.7183761,83.3333515 C11.1944596,83.333656 10.6921862,83.1249106 10.3235043,82.7536232 L0.879059829,73.3333333 C0.507732564,72.9635985 0.299068823,72.4617445 0.299068823,71.9384058 C0.299068823,71.4150671 0.507732564,70.9132131 0.879059829,70.5434783 L5.23803419,66.1956522 C6.02101188,65.4512304 7.25206504,65.4512304 8.03504274,66.1956522 L17.4794872,75.615942 C18.2488094,76.387597 18.2488094,77.6341421 17.4794872,78.4057971 L13.1205128,82.7536232 C12.750061,83.1267026 12.2448097,83.3355976 11.7183761,83.3333515 Z M2.64444444,71.8985507 L11.7111111,80.942029 L15.6559829,77.0072464 L6.58931624,67.9637681 L2.64444444,71.8985507 Z" id="Shape" fill="#3C3B5C" fill-rule="nonzero"></path>
                    <path d="M54.4871795,66.5 L59.0495726,62.1521739 C59.4195309,61.8080092 59.6349634,61.3297512 59.6478223,60.8253023 C59.659567,60.3208534 59.4677018,59.8327135 59.1149573,59.4710145 L25.1004274,25.5942029 C24.3558607,24.872533 23.1659772,24.8887466 22.441453,25.6304348 L11.5440171,36.5 L8.31111111,39.7246377 L6.42222222,41.6086957 C6.10860413,41.9201953 5.91121567,42.3293042 5.86282051,42.7681159 L5.55042735,45.6666667 L5.04188034,50.3115942 L3.58888889,63.6376812 C3.52701187,64.188669 3.71945313,64.7378566 4.11196581,65.1304348 L18.358547,79.3405797 C18.7420453,79.7196996 19.2737701,79.9106309 19.8115385,79.8623188 L35.5692308,78.4130435 L41.9623932,77.9637681 C42.404668,77.9246475 42.8201005,77.7353674 43.1393162,77.4275362 L47.4111111,73.2608696 L48.8205128,71.9202899" id="Shape" fill="#F5F6F7" fill-rule="nonzero"></path>
                    <path d="M19.6517094,80.9782609 C18.867043,80.979858 18.1140792,80.6695332 17.5594017,80.115942 L3.32008547,65.942029 C2.68535877,65.3076966 2.37512123,64.4193787 2.47735043,63.5289855 L4.74401709,42.673913 C4.81950208,41.9808763 5.12957246,41.3342054 5.62307692,40.8405797 L21.6495726,24.8333333 C22.8137013,23.6540286 24.7154048,23.6378162 25.8995726,24.7971014 L59.8850427,58.6956522 C60.45153,59.253141 60.7640193,60.0179604 60.7500522,60.8115942 C60.7437291,61.6340777 60.4027993,62.4188265 59.8051282,62.9855072 L55.2354701,67.3333333 C54.7840835,67.7615541 54.0701308,67.7437103 53.640812,67.2934782 C53.2114932,66.8432461 53.2293827,66.1311193 53.6807692,65.7028986 L58.2431624,61.3550725 C58.3981784,61.2073437 58.4871815,61.0036823 58.4901709,60.7898551 C58.4913097,60.6007771 58.4183097,60.4187439 58.2867521,60.2826087 L24.308547,26.384058 C24.1660008,26.2399019 23.9694887,26.1618072 23.7666107,26.1686902 C23.5637327,26.1755731 23.3729948,26.2668059 23.2405983,26.4202899 L7.21410256,42.4057971 C7.08399464,42.5368938 7.0020774,42.7079693 6.98162393,42.8913043 L4.71495726,63.7681159 C4.69133828,63.9807604 4.76313488,64.1929469 4.91111111,64.3478261 L19.1576923,78.557971 C19.3095269,78.7015292 19.5160378,78.7728309 19.724359,78.7536232 L35.4747863,77.3043478 L41.8897436,76.8550725 C42.0678056,76.8346197 42.2339615,76.7555788 42.3619658,76.6304348 L48.0431624,71.115942 C48.330557,70.821332 48.7563432,70.7068476 49.1532534,70.8174634 C49.5501636,70.9280791 49.8547886,71.2461234 49.9474581,71.6466543 C50.0401276,72.0471852 49.9060371,72.4662151 49.5978632,72.7391304 L48.1884615,74.0869565 L43.9311966,78.2608696 C43.4242329,78.7479628 42.7653058,79.0471741 42.0641026,79.1086957 L35.6564103,79.557971 L19.9205128,81.0072464 L19.6517094,80.9782609 Z" id="Shape" fill="#3C3B5C" fill-rule="nonzero"></path>
                    <line x1="51.4867521" y1="69.3550725" x2="51.675641" y2="69.1666667" id="Shape" fill="#F5F6F7" fill-rule="nonzero"></line>
                    <path d="M51.4867521,70.4782766 C51.0275872,70.4806755 50.612942,70.2047687 50.4388359,69.7809726 C50.2647299,69.3571765 50.3660395,68.8703853 50.6948718,68.5507246 L50.8837607,68.3623188 C51.166437,68.0611508 51.5918903,67.9387941 51.9919265,68.04362 C52.3919626,68.148446 52.7021867,68.4635804 52.7999579,68.8644413 C52.8977291,69.2653023 52.767309,69.6873621 52.4602564,69.9637681 L52.2713675,70.1521739 C52.0630213,70.3595923 51.7811145,70.4767531 51.4867521,70.4782766 L51.4867521,70.4782766 Z" id="Shape" fill="#3C3B5C" fill-rule="nonzero"></path>
                    <path d="M19.1617057,30.6692677 L73.9363325,30.5991337 C75.1560783,30.5975719 76.1461438,31.5851052 76.1477055,32.8048511 C76.147708,32.8067363 76.147708,32.8086215 76.1477055,32.8105068 L76.1342327,43.3328203 C76.1326737,44.550358 75.1460531,45.5369787 73.9285153,45.5385377 L19.1538885,45.6086716 C17.9341427,45.6102334 16.9440772,44.6227001 16.9425155,43.4029543 C16.942513,43.401069 16.942513,43.3991838 16.9425155,43.3972986 L16.9559883,32.874985 C16.9575473,31.6574473 17.9441679,30.6708266 19.1617057,30.6692677 Z" id="Rectangle-path" fill="#C71F66" transform="translate(46.545111, 38.103903) rotate(45.000000) translate(-46.545111, -38.103903) "></path>
                    <path d="M62.2098291,64.6884383 C61.45553,64.6912112 60.731246,64.3938928 60.1974359,63.8623188 L60.1974359,63.8623188 L20.7196581,24.4782609 C19.6141256,23.370092 19.6141256,21.5791833 20.7196581,20.4710145 L28.8709402,12.3188406 C29.4036682,11.7873933 30.1262517,11.4888225 30.8797009,11.4888225 C31.63315,11.4888225 32.3557335,11.7873933 32.8884615,12.3188406 L72.3735043,51.7028986 C72.9063142,52.2342641 73.2056506,52.9549996 73.2056506,53.7065217 C73.2056506,54.4580439 72.9063142,55.1787793 72.3735043,55.7101449 L64.2222222,63.8623188 C63.6888683,64.3945757 62.964286,64.6920165 62.2098291,64.6884383 L62.2098291,64.6884383 Z M61.7957265,62.2681159 C61.9062143,62.3791896 62.0565914,62.4416637 62.2134615,62.4416637 C62.3703317,62.4416637 62.5207088,62.3791896 62.6311966,62.2681159 L70.7824786,54.1376812 C71.0096298,53.9089248 71.0096298,53.5403506 70.7824786,53.3115942 L31.2974359,13.9275362 C31.0650269,13.7085257 30.7016398,13.7085257 30.4692308,13.9275362 L22.3106838,22.0652174 C22.0835326,22.2939738 22.0835326,22.662548 22.3106838,22.8913043 L61.7957265,62.2753623 L61.7957265,62.2681159 Z" id="Shape" fill="#3C3B5C" fill-rule="nonzero"></path>
                    <path d="M35.365812,67.0797787 C34.4672098,67.0815877 33.6047247,66.7270484 32.9683761,66.0942029 L32.9683761,66.0942029 L18.4820513,51.6449275 C17.1632132,50.3220904 17.1632132,48.185156 18.4820513,46.8623188 L22.3179487,43.0362319 C23.6441777,41.7207668 25.7865915,41.7207668 27.1128205,43.0362319 L41.6064103,57.4782609 C42.9252483,58.801098 42.9252483,60.9380324 41.6064103,62.2608696 L37.7777778,66.0942029 C37.1378728,66.7306178 36.2694429,67.0854503 35.365812,67.0797787 Z M34.5594017,64.4927536 C35.0048068,64.9368935 35.7268171,64.9368935 36.1722222,64.4927536 L40.0081197,60.6666667 C40.4533983,60.2224007 40.4533983,59.502237 40.0081197,59.057971 L25.5290598,44.6231884 C25.0836547,44.1790486 24.3616444,44.1790486 23.9162393,44.6231884 L20.0803419,48.4492754 C19.6350632,48.8935413 19.6350632,49.613705 20.0803419,50.057971 L34.5594017,64.4927536 Z" id="Shape" fill="#3C3B5C" fill-rule="nonzero"></path>
                    <path d="M55.2863248,3.43478261 C54.0021864,2.88117956 52.5118718,3.13082129 51.4794872,4.07246377 L38.0683761,17.5362319 L39.6666667,19.0362319 L55.2863248,3.43478261 Z" id="Shape" fill="#E5E5E5" fill-rule="nonzero"></path>
                    <path d="M79.5512821,27.615942 C78.2544892,27.0493109 76.7436199,27.3118951 75.7153846,28.2826087 L62.3042735,41.7463768 L63.9025641,43.2463768 L79.5512821,27.615942 Z" id="Shape" fill="#E5E5E5" fill-rule="nonzero"></path>
                </g>
            </g>
        </g>
    </g>
</svg>